<?xml version="1.0" encoding="utf-8"?>
<!-- Generator: Adobe Illustrator 23.0.1, SVG Export Plug-In . SVG Version: 6.00 Build 0)  -->
<svg version="1.1" id="Layer_1" xmlns="http://www.w3.org/2000/svg" xmlns:xlink="http://www.w3.org/1999/xlink" x="0px" y="0px"
	 viewBox="0 0 88 24" style="enable-background:new 0 0 88 24;" xml:space="preserve">
<style type="text/css">
	.st0{fill:#4A4A4A;}
</style>
<path class="st0" d="M8.8,5h4V19h-2.4c0-3.9-0.3-7.9,0.1-11.8h-0.1L7.8,19H5L2.3,7.1H2.2c0.5,3.9,0.2,8,0.2,11.9H0V5h4L6.4,16l0,0
	L8.8,5z M21.4,9.1c1.2,1.5,0.9,3.6,0.9,5.4c0,1.5,0,3,0,4.5h-1.9l-0.5-1.5h-0.1c-0.7,1.3-2.2,2.1-3.6,1.5c-1.4-0.5-1.8-2.3-1.6-3.6
	c0.3-2.8,2.9-2.9,5.1-2.9c0-0.6,0.1-1.5-0.4-1.9c-0.8-0.7-2.3-0.1-3.1,0.4l-0.9-1.8C17,8.1,19.8,7.6,21.4,9.1z M19.7,14
	c-0.7,0-1.4-0.1-2,0.4c-0.6,0.5-0.8,1.9-0.2,2.5c0.7,0.7,1.6,0,1.9-0.7C19.7,15.5,19.7,14.8,19.7,14z M25.6,4.2
	c-1.8-0.2-1.9,2.7,0,2.7C27.3,6.9,27.4,4.2,25.6,4.2z M24.3,19h2.5V8.4h-2.5V19z M34,8.2c-1.1,0-2,0.6-2.5,1.6h-0.2L31,8.4h-2V19
	h2.5c0-1.4,0-2.7,0-4.1c0-1.2-0.2-5.7,2-4.5c1.1,0.6,0.7,3.5,0.7,4.6c0,1.3,0,2.6,0,4h2.6c0-1.7,0-3.5,0-5.2C36.8,11.7,37,8,34,8.2z
	 M51.4,6.8c2,3,2.2,9-1.1,11.3C48.5,19.4,46,19,43.9,19V5C46.4,5,49.7,4.5,51.4,6.8z M50.1,12c0-1.3-0.1-3.2-1.1-4.2
	c-0.7-0.6-1.6-0.5-2.5-0.5v9.4c0.9,0,1.7,0.1,2.4-0.5C50,15.3,50.2,13.3,50.1,12z M60.9,9.4c1.1,1.5,1,3.2,1,4.9h-5.1
	c-0.1,1,0.3,2.3,1.4,2.7c1,0.4,2.4-0.1,3.2-0.7v2.1c-1.6,0.9-3.8,1.1-5.3,0c-1.6-1.2-2-3.3-1.9-5.1c0-1.7,0.6-3.8,2.1-4.8
	C57.8,7.8,59.9,8.1,60.9,9.4z M59.4,12.5c0-0.8-0.2-2.5-1.4-2.3c-1,0.1-1.2,1.6-1.2,2.3H59.4z M73.8,8.2c-1.2,0-2.2,0.7-2.6,1.8
	h-0.1c-0.6-2.3-4.1-2.5-5.1-0.4h-0.2l-0.3-1.4h-2V19h2.5c0-1.4,0-2.9,0-4.3c0-0.7,0-1.5,0.1-2.2c0.1-0.9,0.8-3.1,2.1-1.9
	c0.9,0.8,0.5,3.2,0.5,4.3c0,1.4,0,2.8,0,4.1h2.6c0-1.4,0-2.8,0-4.3c0-0.7,0-1.5,0.1-2.2c0.1-0.9,0.8-3,2.1-1.9
	c0.9,0.8,0.5,3.2,0.5,4.3c0,1.4,0,2.8,0,4.1h2.6c0-1.7,0-3.4,0-5.2C76.7,11.7,76.9,8,73.8,8.2L73.8,8.2z M86.7,13.7
	c0.2,2.5-1.1,5.4-3.9,5.5c-3.2,0.1-4.3-3.1-4.3-5.7c0-2.5,1.2-5.3,4-5.3C85.4,8.1,86.8,11.1,86.7,13.7L86.7,13.7z M84.1,13.7
	c0.1-1.1-0.2-3.8-1.9-3.3c-1.4,0.5-1.2,3.2-1.1,4.4c0.1,1,0.7,2.9,2.1,2.1C84.1,16.3,84,14.6,84.1,13.7L84.1,13.7z"/>
</svg>
